# xmcd
#
# Track frame offsets: 
#        150
#        8964
#        18302
#        27572
#        36041
#        46879
#        56184
#        64788
#        74183
#        85652
#        94911
#        104739
#        115967
#        125427
#        134228
#        143369
#        150761
#        159745
#        170217
#        178400
#        188792
#        202054
#        209890
#        221886
#
# Disc length: 3098 seconds
#
# Revision: 0
# Processed by: cddbd v1.5.2PL0 Copyright (c) Steve Scherf et al.
# Submitted via: ExactAudioCopy v0.99pb3
#
DISCID=7c0c1818
DTITLE=Lewis Family - Born Of The Spirit Disk 2
DYEAR=2003
DGENRE=Gospel
TTITLE0=My Closet Kin
TTITLE1=Hide You In The Blood
TTITLE2=Jesus Is My King
TTITLE3=Help Me Understand
TTITLE4=Just One Rose Will Do
TTITLE5=I See Jesus
TTITLE6=He's A Shelter
TTITLE7=I Know God Will Take Care of Me
TTITLE8=Grand Homecoming
TTITLE9=Spread Sunshine
TTITLE10=Out In The Country
TTITLE11=Talking With Death
TTITLE12=Stay On Top With Jesus
TTITLE13=Are You Ready For Heaven
TTITLE14=Somebody Loves Me
TTITLE15=Dwelling In Beulah Land
TTITLE16=The Heavenly Plan
TTITLE17=World's Greatest Story
TTITLE18=Are You Ashamed
TTITLE19=Some Sweet Happy Day
TTITLE20=Child of the King
TTITLE21=Matthew 24
TTITLE22=Wings of a Dove
TTITLE23=In Heaven
EXTD=
EXTT0=
EXTT1=
EXTT2=
EXTT3=
EXTT4=
EXTT5=
EXTT6=
EXTT7=
EXTT8=
EXTT9=
EXTT10=
EXTT11=
EXTT12=
EXTT13=
EXTT14=
EXTT15=
EXTT16=
EXTT17=
EXTT18=
EXTT19=
EXTT20=
EXTT21=
EXTT22=
EXTT23=
PLAYORDER=
